<svg id="Layer_1" data-name="Layer 1" xmlns="http://www.w3.org/2000/svg" viewBox="0 0 984.29 973.58"><defs><style>.cls-1{fill:#020202;}</style></defs><path class="cls-1" d="M695,144.35c6.18-16.93,12.5-28.53,23.95-42.06l7.3-8.77L683.28,49C658.07,22.51,637.8,3.81,634,2.72c-3.55-.83-8.37-2.2-10.39-2.48-2-.55-7.89-.15-12.76,1.28C604,3.17,585.58,19.37,534,69.06l-68.15,65.42,9,9.33c7,7.51,9.19,12.39,10,21.31,1.07,10.72.53,12.24-8,20.47-13.47,13-26.94,11.72-43.68-4.89l-7.49-7.52-210.48,203C-12.15,595.18-3.58,585.93,1.88,607.41c1.64,7.66,11.6,19.56,45.06,54.29l42.69,44.58,6.46-5c28.9-21.36,51.7-29.07,83.77-28.73,28.75.53,49.25,6.77,71.37,21.95,17.09,11.77,34.28,32,42.84,50.18,20.54,44.93,12.84,103.08-18.34,137.11l-8.07,9.27,38.71,40.18c37,38.37,39.22,40.19,50.38,41.67a75,75,0,0,0,18.83.09c4.86-1.18,72-64.06,217.64-204.4l210.71-202.5-6-6.73c-12-13.21-14.29-25.21-7.43-38.07,4.47-8.05,14-12.72,25.94-12.49,6.61.12,11.4,2.5,18.41,9.25l9.5,8.83L912,461.49c73.35-70.92,75.45-73.93,70.74-94.13-1.9-7.93-9.85-17.75-40.56-49.63l-38.46-39.66-9.31,7.71c-35.17,29.89-93.81,35.42-137.7,13.21-29-14.79-54.38-45.56-63.46-77.28C686.58,199.18,687.46,165.6,695,144.35ZM447.72,461.71c8.27,1.35,15.53-1.71,22.12-8.06L610.09,318.54c.95-.9,2.65-2.52,3.71-3.51,5.29-4.94,10.61-7.62,17.18-7.12,8.93.67,11.29,1.63,24.94,15.08,24.29,24.26,27.22,36.38,12.84,50.23l-4.37,4.2L517.29,519.23a26.33,26.33,0,0,0-.4,18.36c1.48,6.31,4.87,11.69,9.92,16.93C533,561,540.17,564.9,548.1,565.91s15.54-1.71,22.12-8L709.58,423.27c1.19-1.11,2.44-2.41,3.75-3.67,6.71-6.47,9.73-8,17.73-7.81,8.94.16,11.27,1.61,24.9,15,16.62,16.78,21.42,24.63,21.22,35-.12,6.71-4.72,12.18-9.94,17.17L616,625c-22.83,22-49.25,31.17-78.64,27.7-27-3.64-51-16.34-72.38-38.53a147.5,147.5,0,0,1-22.88-31c-5.72-11.66-9.85-23.29-11.45-35.67a108.27,108.27,0,0,1-35.15-13.76,125.14,125.14,0,0,1-30.62-23.51q-31.56-32.76-35.46-73.41c-2.82-30,7.34-56,30.22-78l149.42-143.5c1.33-1.2,2.83-2.63,4.34-4,5.83-5.19,12-8.19,18.6-6.94,9.21,1.75,12.77,3.19,24.38,15,22.75,23.14,25.25,34.81,11.12,48.41-1.92,1.84-4,3.94-5.47,5.33L424,406.07c-6.58,6.34-9.18,13.44-8.54,22.15a38.4,38.4,0,0,0,11,22.11C432.72,456.85,439.85,460.76,447.72,461.71Z"/></svg>